<mxfile host="65bd71144e">
    <diagram id="LoZbTTuitfRillbhNdKT" name="Page-1">
        <mxGraphModel dx="777" dy="767" grid="1" gridSize="10" guides="1" tooltips="1" connect="1" arrows="1" fold="1" page="1" pageScale="1" pageWidth="850" pageHeight="1100" math="0" shadow="0" adaptiveColors="auto">
            <root>
                <mxCell id="0"/>
                <mxCell id="1" parent="0"/>
                <mxCell id="2" value="" style="whiteSpace=wrap;html=1;aspect=fixed;" parent="1" vertex="1">
                    <mxGeometry y="160" width="850" height="850" as="geometry"/>
                </mxCell>
                <mxCell id="3" value="" style="shape=image;verticalLabelPosition=bottom;labelBackgroundColor=default;verticalAlign=top;aspect=fixed;imageAspect=0;image=data:image/png,iVBORw0KGgoAAAANSUhEUgAAAZcAAALICAYAAACzVr2yAAAAAXNSR0IArs4c6QAAAARnQU1BAACxjwv8YQUAAAAJcEhZcwAADsMAAA7DAcdvqGQAAGgTSURBVHhe7d1rjC3ZdR/2/9p1Tvd9zJOPGb6GlETSlGxRDC1LlETJsGEH+RDEiYMATmArMJPAgWU7MgVHBhIglp0vcWAoX4wwCZDIFG3FgB07cBJJfkgJAgWxZNKxKFOSyZnh25w7Tw5n5t7uPlV75cNau2pXnTqnz2OfR3f/fxfr3u7zqFN1+vb+n121a5fIEx9QAPjYj/5JxFDj5ME5HnrlAR56+XUAAqgAACDR/iUiomssa/dR2feI0FCjmU7w6lsfxtlDtxAnAaKCiMng+cAnP/UJSBcuP4ZYXeDWaw/wxFe+hqc+/0/sUW24aP5cIiK6rtpwSf8qNAgubj2Mr/6OD+GVt70Ns1snEA2I7WM6o+Fy+9X7eMczT+P9v/73h48nIqIbSkOFs9uP45kP/ghefNd7cH73FqABY92OT37qEwjDGzvpKeKl2W1ERHQjSYSKei4sjpDF94h2PSKkjGG4EBHdWKIAoh2DgUBHdokli8OFiIhoQwwXIiIqjuFCRETFMVyIiKg4hgsRERXHcCEiouIYLkREVNzBwiWdmslisVisw9YuHCRcBH6OJovFYrEOXrtwkHAhIqLrjeFCRETFMVyIiKg4hgsRERV3oHAZjlVgsVgs1vp1vPYcLuIvmb85FYvFYrHWrtSWHqc9h0tHRLzyr9crIiI6Tosvc/zZX7DsSddSlghAES5JynQBGRVA4FcrE+mepYBEhejwSpeXs+Wl62GKfdVbTncvEdH1pfBP5lABNLWK3h4qAIj3HbRrOyHaNul5U6ntjYtpqHB25zE888Efwgvv+jac33kY0ApAM3woPvmpT6CSu2/5KQD48Ie+DxoaTM9nePiVl/Hme0/3G34/0yaLiXEiUJGUKe0iup1hKVhSIft6UfnrS9cTVHvHBmWv2z6WxWKxrlnl7arAv27/8fZVLAzUP9h7Dtkj0vP9dpV04yUkoJ7ewitPPoX7jzyGZnrqDXKWUu7XP/vp9XsusqTvorCVVihUAurTW2iqCqJqu7JitIzSfHUWLS2XAiu9Q9Zj0fbdzTJoZEOJiK4Ta/a8LUT6Ry1MYg1FQAwTnJzfx6Seda2sKGIbKOlGAPHydnjdnssG4VINFjOkCHGGi5PbeO7d34kHdx/FdHaGppqiijUkNlAImjBZKVdseoIUJN0TROwazt3bbB3DbncbEdF1ZO2eikCDHYYQKEJTo56eINQ1gAqhUbzzS5/F7fvfshiSCiqKmPaW5e1vc3ljfMBw8eMsGjG5OMdz7/kAfvX3/1Hce8fvwMnZ69AgEG0AjVARxKqyMLgsYdLcN5LtT/T9jECASsj6iQwWIrr+otjuL9HG9xYBk/oCsTpFU02hUuHRl1/AR//BX8PbvvYvMK0vbDcZrmy4CICIqp7hufd8J37pD/0ZfOW9vxsn529A1Z4PAJqOiUABrS6Lly4z2lBJQebHdthjIaIbQgGoREAVgtr+VUXVzBDDKWKYoAknePTlF/Cv/q//DZ569tdxen4GDQFARAzW4l6hcIH3IgCJDe499QH8o3/zx/Gl938vTs7e8OMwaisi0o2C1jVGQ+dHpdJNgK0Xw4WIbghr7SJEa68IaSJCVGioUE9u4eFvvox/7W//NJ764mdxev4AGgIUsW1y1Xs8ACA7CJc1WvZVKABF0GhdNihCjAixgQAIsUHQ2v6NwUqxekUgNIrQ+NdRfZAAg4WIbg7RgKDWflbePkIFk9kZJvUDTJpzTJoZqqbxgb4pPLoQUbXuwkojxTZQOFyA0DS49ca3cHr+AFBFU00QqykgASIBopUVxEeerV5Aekd81BkR0Q0lqggqFjIIvZPL7VxD+9rPPLQP/1m7KRAEtZZ4F4qHi4aA+vQuLiZ3EMX28dkuNTtGErRCQICKQkNcq6z7YjMfaIjd+SxERDeJRGtDBTZiTAQIAkiAhiniZIJ6UiGG4CGjCKoIUO/xWIkGO3a9A+XDBQFNdQINlSemBYtFZkDQyjZo8LyVbfxEIqLrRLp+ifdSYrBj4ulEdTvOYo9Lz+g9W31g1A4UDpfUJQuomogwdzzEux2lX5aI6CZpm9V+MKiPBBNtILDTPrpHSHsSuz14+OyyirXy7agDFUijCHWN0ES/I9sEyc6qJyKitXV9kfSdSVNveZfEjm37uYLpOHW6e9eKhYvAx7Wp2n4/RDveYgPmhg8nIqKCRPyYi6Sz9v32uf7NfhQLFwDtvF4xhHbStLRlmrbQ+2WqCo1xq+pmRCYiutlUbQqs9hhL1ls5hLXDpc2IQaU7VQRNEDSh8oAJiCGggdiEaX4yZWxHO2xRaXgdEdFN05v83VrhdhZkBSBix13QfbgXexAUwZv/XgteVLFwEbHEVAFiNqGazQMmqEPw2Tg9FIZBsUEdNJaJiA4tNYM+OkxU05kf/tFbEYPtUxKoT3Cy+2DBJuGS9xd6lf5K12rRaDXYfZW+EpWta5dvDBHRMVM/3ND4ce0oE4gK1I+7BG+PU88lHQVv9yC1rflurB0uUYGoOlfqYSKxgTQzoDlHaM4xqWeY1jVu14oqeu8GFYJOUW1ZQaudTV1ARHSs2mAJgrqaYlbdxqy6i9nkFi5O7yCGE1SzC4TmAkBEA8EFAs4Q0GiDOPizC2uHy8rE//IOhgbb91dS6eUREV0tfoylneIF2ZV+5z94z9+yO8XCxbpe3Zmitm22kXbdAfveEnf++MkmBez4LCAioqPU/2idh4t9mu+G6Hb3pNDZj2Lh0k2F3/+3nTBtKD+zZ+MaLpSI6CbIgqT9ygYhd7fbd/ahP3070hbvSLlwISIicgwXIqJrYn/9kssxXIiIrjibfz5AfbixYs9H70cwXIiIrjA7YH/gJBnBcCEiupJ8NG5WLZ9H+JAYLkREV9pIuLTnuvQvbbxPDBciomtDIBoRtEEVG4TYHoHZO4YLEdEVpj4tV6OpDxOsw5Ku1XggDBcioqtsZM+XIk29dbgD/QwXIqKrbnh4xa+tleb1lXbG+v1huBARXXkWHr3JYCQACIPOy/56MgwXIqIrTCxCEHopIghqMyarCDQEIAyDZrcYLkREV1ba1dXf5SX5qOQ99lZyBwqXfEpoIiJaT5rmOLWh6byW7pY0cXw6f3/fre2BwgWDN4aIiFY3DBcs7KOM3bYPBwwXIiK6rhguRERXXX6Q5UgwXIiIqDiGCxHRVXeEg6MYLkREVBzDhYiIimO4EBFRcQwXIiIqjuFCRETFMVyIiKg4hgsRERXHcCEiouIYLkREVNwOwqWb+tn+Gc7cSUREu5Ha32VzjeWPueyxm9tBuMBWVnDAKwkQEd103u6OZkd+4+gDtrajcHEigMjgumC72RAiInIiUARAs71I6eu2Dd5drwVlwyWtaLSFSoBK6F++RtQrdkVERJsTgYQACQHwUqmgIpAY50JEZD97kgqGS1+IHhx72hAiIuoOQwgA0WaXnZOldhQuESE2ENVDbRcR0Q0miAAk7nbX1zK7CRexxJQDbRQR0U2WIsXC5TB2Ey5pt1h7AImIiPZJAEi8RrvFbD8fUMUaQdOQZCIi2i8FNB3Q37/i4ZKEpvENIyKifejFiMKPfec37k+xcLFRxnZCiyjQTKbQEA4VmkREN5CduK72JWI1OdjeI5EnPqAA8LEf/THE6gK3X72PdzzzNN7/2V+w7ElnP4p3r3RRHvnwNwWCRrz26FvwmR/5w3juqe9C1cyYMUREu6bdMKpHvvkCvv//+pt4+NXnUdUXgweuT0OFszuP4ZkP/hBeeNe34fzOw4BWAJrhQ/HJT31iV+GiOL91G6++6e04u/0QRGN2hj4RERWngEDavUWT+gKPvfR1nJzftzZ4+Pg1HT5cAIgq7j/0GE7O72NycQ71KWCIiGh3QpYgMVQ4v30Xpw/esJMph8dk1rRuuCxKig3YajciuAgVTpsZgipiYLAQEe1DlK4EEXfqcwis17JNsGyiYLh0Kx9FAI1QaH9uMSIi2huJ872KfSkaLi0BlCdQEhEd1CEn4NpJuIgCSGfos+NCRLR3CvVZUg4TMIXDRW3SSo0+bdrhzg4lIrrRPFsOtROpaLikqV8CIsTPDD3U2aFERDfdIQ9PbBgudoXJsRKR3ljr4f0sFovFKlHZJ/rR8l1jc8/Lql1IeRuEi2/UZRYG5u42hojoZlnY0Gb35SEyqDZgyls7XHqBuazmbgC8T8NisVisEjXSGenKWlx77JI/IsNmvoi1w2Udw14aVNsT/YmIaFdsEmGTRoztt+HdabgQEdHNtPNwUdW29hycREQ3VN5TST2Y3ez+WmSn4TI+DG7/3TMiopsnb2f3GywAUMndt/wUAHz4Q98HDQ2m5zM8/MrLePO9p7PDRn4ABYCM5FEbIn6wfyxT7KBRd0ebqVscTBoPLyKiG6BtOhe1g+mUkPE2VlKDDSxZRkYC6uktvPLkU7j/yGNopqfeP5l/7q9/9tMjSXEp8QX2V1jEr38mCgnaTdHfPiBmt82vDDYIi22CiYjoaLUjobzdHLanmP+2Lz+gb48VtSn5U+3aBuGCuR6IbYMNeQtqvZsgwYe5KUJlo8REgwWCSDuk2QLF5k+2E37S0LLVdMPt+Id/+Id/rtMfa1UFfnL6oCACVYFqgGoANNieJRXfe6R2SsgCkmfY8M4CNgiX1PD7fJuibUemfUvEzgoNDRBqsWBJY6/9TYOfOJovUcTeFAssvbTmxjqzWCzWdShrED0BvIFsP8z7B3FoiggAYhdlVHueeHKkySvt4sdtS2t/vAczfNlS1r4SpaCyHkeKl6BQ8XyJYnNVBgUmFi6AX6ws692kNwgq9u9Qdpt9ZfsOh+k6/J6I6OobaRO99VXY3qB0BEGjh0sApEI2C7ICjUIfABKCf6DP+0T99jOi8XY5u3Fg3StRrh0uFSp/uqVi9PgTCDQGxEZQaUR4syC8VSC3/A2Y2PaKiAeSArVAq8G+RM22Wj3AvIOVMpqI6PqK2dddi6fw3T9Zi6kzD4qpAJOs+xEV8XUgfj7abrRoH/4l+qGJgaMLF8CuNhmDQiUgaoDWgmkdEb474PRHA6rfJUAjCLfVLrYZvZsmiiCCRiJEfVSDLbJb/kiaLNl2IqJrIrV0Aqh9uLa9PNkH8bY99YP3TQTuKjQItK4Qv1Lh7L+bQT+vwIO0KyxrQSX1YY4yXFLvJQKooCqIDQANmHwAuPNjwPR7AT3vjq9YeNiutLSU/F/Aw3fujVxuyXtCRHQUVm/RkmHLpr19OOk7QCEKxIndII0gflHwxk/XkC/Bdo8hHfD3Re04XDY4oD9P2r/sH/WNl4lCpgqpsl5I6AYADEuD7wHbpEaWx2KxWEdVw3br0hqMH063tcsToPLjLRM/MN8OngIk+gf5fFdYe2mU3QrDGzYjvgG+EWpbpgHtPkA7FOVD48Ru757j5dr0HN4/rOxhc/exWCzWkZUUaqva0bIAFAERAVF8T1MacdseWvDTP2Cnh6TP4lnruRNbhIv4022QG9SHCHtHTYPtAtPG7hONPtzNnyMRGtSGz6WNbyNXbL+hv4lj1aZv9hwWi8U6+oL9m9q+9crbxMraTxGBokItU8xk4qNw1RrfKkKDhUcaJRbUeixW9rftaSpvw3CxEEl9kvY983154r01vAbo6xYuUD/4n04cFbEBAd6DGdbyvZP5qO3urVpcRETHIx3fuLyGH6yt7VQ/bp1aSRVBRGVNrSowVchdBfw0EIH923tO6t0sbWs3t3a4qEab5Rg2+isCiHECjRWgNhohBAVqACcKOYmAKqIExABosKkMRO0AlOVmnC8FggqChpESP/lHbN/bZTW/I5PFYrEOUoIA0YAQLysZuS1AYkAVJwgxeDA0mMQZpnFmvREJQBRIDQSoT/WiUImIEhEFXhExdLfZh/pywvCGy7QJ6r2v9mQeIOslKDQqUFlyqtogsTat/VGC/tmheSXD2/uP8dcbdlSysl11Y58AWCwWa/+F9nTIy2quOetV10BGiEQEaey+1D5q97je67f/ov+gwtYPl/RF6mplUiMOsd4K4PsJ80euODllepOWGyTRHL9v6WOIiPandGskg3a5+8K+6Xokw/ay9Jr0rR0uGKySr353g9pffpjfUyhLIr8/SW/BXK2y3fmbNlp2H//wD//wz7H9mW+vtqjUIxIbkWtNY9tAZo/Mn7dbG4XLcra/zw7Yw7p3nhRtlmra59d/JhERbSN0e4tiL1/2rni4KGy0Qq/3EXzIcP64FXePERHRarpjKf59TNPv71/xcEEbMN7xOmByEhHdKIP2dqXDCzuyk3AhIqI9GgsRv+1Qn+83D5exjdnAosWsNuZ6tQNTKy2KiGgPSrZHqWdScpmlrB8u7YmJ62+Owg7i58Gh7Qk9/VKoTRGzpLpwiQtLYCdrzs3/xmKxWAeodmDTltJy8mUfk/XDZRWrdTuIiOia2km49AaG+dH94eiw4egxIiIqZXDy+gEUCpeRjfCbVjsqQkREW1P4bMeHb3hXDJfL1rILF/Gei4qdC8pdZERE+yHZlPrQ7CDPAWThclkfY9l9fb2rnKWj+LAtbq/BQkREZeXNdJsyh9GFS29q+v4aCQQSbZrocRFotyVt3chyFLacGCxhV88rIiLqSR0Ca0hFAxDsUiiq6lPQ5/2Hwfc7lr1SNka4bfS71l88HC438qBuHhi/HtrBQ5WI6BqwcJG27bZrmsy1wsUPT1y+vDZc0siCdPqIrazv3lKsHQe2cT5bp5+3Yrfm56e0d8+VGd46LCIiymdaFgCi3sZqHiz2b2p98wBavTWVdgZmm7RMF7bHXbiInb0o0a+zrOmqy23sjC5gTtsB8lAJafsUkAYiDURiPyZSBuXVf8SSIiK62SxaIiT4hcbUbjX9trINl3TZY8+L5XumxOLC5/O3KwY33lmw5SukXR5WHy22gdQ18y2R9DURERUnIhi09/3LBS902f1jLn9OdkB/tV5A17NYzo4n+XDkCPYyiIiKs0/vgnQoI7NKk5t2ca2g69loOrRj36XeyuD1+gf0h/eOaB81tz75Slpa2tJWSCIiIlqft60CQcgb2pWa8zWCpfedP+eS5e9ut1iSEu6SFSEionUMwkH6iZJOJ0y37rsJ3lG4rJaGRER0PRUMlzwX08mYvleMWUNEtHtpBBgO/xm/YLhgtOM1fwsREZWk7XWw3CH2gw0UCRcbQaZ24o6PErMJ06QdF01ERCV5grTta4qW7ASW/jCrnZg7R9FfqEi4APA5xWyp7bC0tpguRES7kdpX7Te86QT9HQbLMiPhsspJN4u1m9bbos2XR0REiyz54O6dmiWP2Km5cEndmuH5OEMC3/M1lhti0+xLzBJm7HFERLQRFTs/PfpVTdKVTfoPGt6wP71wSbvprMRPs88fsSrph8rYRhMRUSHpUvJWNtNXtovsAPo9l3w9tlkfVculmM1ittUCiYjocoO9RQfcNdaGS7p2ZNtRWSH0lndqUq8n37olCyMiotWl2eNHD5MvOmaxqa5XtKouXFS8OxUhorZbbMkoL0VvtFv/nvT6bUBdklJERLQWQbo0SjerWGp6Vfyik/lJlVuzcGlHA1+i2y2Wp4TCDsZvtEZ2vksI2eunBF1hhYiIaEPpTEr1r5daryeyri5cwjk0KDSkHks+TrrrEqkIooj1bFzbg5FuBuSu52MRakOTBVEFqn5hGaYNEdEG+m2oaLC9T9muMNX+VX87qetRATqxf9vb+tTbekUF6DR7PKwjAQWkAaRO11ZpdeEijXdZbGES26f6a6aYWbASHjItSUu35Mnvsk0dXw4REV3G2s98l5fAxyYDXaiMNrGp7R3WIuk+f5w39r4GI+FleqPFJP2VAjB7TVvEohVIL+AXB0M6wpQuiZkWRkREZXSDpnqtb9rjVKrJbccG9INkcayYLFwkSyF/ip9mr36Av7crzFfeNqDbtPS37SHT7Fj+ZelIRESr69pUFUVEhPqZ7Xm4pEdt1fpKyoO+ZQE2d4b+tgTZILPshUW6U3qwQuoREdH6rF21vUfzQ5T3Zy5c+nOCbUjbv9rMtLNHxf/kvR4iIiqh366WaMw3Nxcu2Lb7lIj9ZdFiS+x6LkVegYiIerqDE12Le5iQGQ2XUtLIZEYJEdE+pCCxPUXz9+3PTsOFiIh2KQ8TZIEyDJb9Y7gQEV1JY/OHiTfrDBciItrYWMAchzZcjnP1iIhosVV6KIfZVdYLFwYMEdFVs0porPKYsrhbjIiIimO4EBFRcYXCZfxsljRjJ3e3ERHtynG2sIXDZTxgiIhoF/YQLBteyTILl02ePqDo1kTRzv2svT/2wPEoIiKi1R1bK9q17F24SLpq2TZswRLt2s42BNtm54w2ITSiB4wc7/BsIqIr5FgCpr8Hq9BuMSIiupYWXdDyEluEy+LjLKbdN2YXDWMvhYjoxtgiXLByuOCSRxIR0fWyZbgQERHNY7gQEVFxDBciIiqO4UJERMUxXIiIqDiGCxERFcdwISKi4hguRERUHMOFiIiKY7gQEVFxDBciIipui3Dpzx0G5JOHcZZKIqJrYcNJIbcIF8yHS/pa7CJhRER09W3SnG8ZLmNi9nU+LT/nRSYiuil2EC65LFCUwUJEdFMUCpeR4y+5XrAwZIiIroz9X4kytyRYerh7jIjoJigULkRERB2GCxERFcdwISKi4hguRERUHMOFiIiKY7gQEVFxDBciIiqO4UJERMUxXIiIqDiGCxERFcdwISKi4hguRERUXKFwWXUyylUnuCQioquscLgsCBgZXq2SAUNEdCXIZi12oXDJ5QGTBUkvYIiI6DrbQbjk8ouIscdCRHRTbBEuI7vC1L9XWbiHjIiIrpAN+wRbhAsWH2NZeDsREV01m7ToW4YLNnxZIiK6zgqECxERUR/DhYiIimO4EBFRcQwXIiIqjuFCRETFMVyIiKg4hgsRERXHcCEiouIYLkREVBzDhYiIimO4EBFRcVuEiwKIXi5NMyZx45k0iYjo6tsiXMbwmi1ERNfK8VyJMpdf84WzJxMR3RQ7CJc847KLh6ULiTFkiIiuvULhsu7uMAYMEdGVoJu12IXD5bKAYc+FiOgmKBQuREREHYYLEREVx3AhIqLiGC5ERFQcw4WIiIpjuBARUXEMFyIiKo7hQkRExTFciIioOIYLEREVx3AhIqLiCoXLqnOGrTL/GBERXXWFw4UBQ0R0rRznxcI2WSUiIrrqdhAuee9FAURAvBg2REQ3wg7ChYiIbrotw2VwnCVdylhXOfZCRERHb/9Xolx2EF/GbyYiohthi3AhIiIax3AhIqLiGC5ERFQcw4WIiIpjuBARUXEMFyIiKo7hQkRExTFciIioOIYLEREVx3AhIqLiGC5ERFTcFuHi0+kjdjel+cQkcnZ9IqI9EwWCV2qONfuzT1uEyxheZZKI6FDy+YLFm2Id3rGu47wSZT5z8jZbR0REfQIZtKvpqifIrnwi2Wf+9KX6N/bvJtFxuR2ES76i2Va2W01ERNsSb1JFpC2IQr0gAhFPkHQEQ7UtRfp3N3YQLkREdFS2+Wy//4uF5XqdrSXEX3KTVSUiouUCgNDuMIsANIwf0BftKu7gAsKFw4WIiA6vS4pDtcyFwoWIiKjDcCEiouIYLkREVBzDhYiIimO4EBFRcQwXIiIqjuFCRETFMVyIiKg4hgsRERW3m3BR8VnViIjoJioULjYrWhcn28ySRkREV10bLmkCs+0Mry7gRm8kIqKjN3exsKwbsSQzunDZKgMuf7aE5fcTEdFVYR2JZa16tlssegxFAE2arDl/bI9kvR1RW5Bd8UwQJUDV407VLliD6N/vYG5nIiLaQmrvFZDYVrtHSxQa7H67LV3GsiMAglph/piLL3wT2dMEOtKXYqAQER2vy4+NCHQ0WMYUOqA/IJtnFBERHbvsuEvvu66DUjhclu+FU9tLxtwhIjoi6WjF5W2zeGx0bX17eCT1fLz3Uzhc0msLIICIQHi+CxHRNXP5IZTy4UJERDdClK6GUTMIl+W7tbq0Gi6GiIioM9JzuSxgEgYMERGN64eLpmDJwyWFSN5rWT1YVn8kERFdFyM9F2QjAuDxsPyEykXGniE+uoCIiK6TlBURWBwu5akNIBtPHCIiulYWHNAfOeayYZej1+9Z/+lERHRoedu9Yju+IFzGrHespbVskUREdCXY3JHDWxcbmVusgEKLISKiDW3QDi/tByzZsTVm8TGXFRcAP56SP36N1yciokLSrMR2BGP1VjibtWVePtNK8BlYgl1tOM2APGY0XFSAGEZOuSQiouOQ7aZaPUa2NHq5lPHuRBYu9gCbwGwkWFa4DostwSbcNzq4TsDoOhAR0QbEex3Iex7DPUmarhC8RuM72t77922o2ReiAtEAGUxoOQgXe3y7jsOAWXXl1GY/br9QW4n0Zz65iIhoXakp7+dJv31dO1hGlggM2nWo3Z+CpQ2j0XDJ1mmd9RghKhBJ6eTBogr1E2x0PrWIiGgtXfsKiF39N92M1PGwPUllPtT3X89eoB8h+Yiy3j1isWS7xbYggF3aWOygj72Yv+q649mIiGhe20nwL9pmNbXfdnuRD/N+aeMQFaGJCKq+G2z+sH169d49mt0jcfMVUg8piEJF53fdERHR9jZvptcjPrGLKGJQRPE9UdKVirbT72MYLmjXVbfdM+bYSyEiuhZ6oeADtAbyFr+/WyzrZZWNhLJLIyKiw0thMtbCz/VckB5cKGB8r9/wZiIiusLyYBkLmNFwISIi2gbDhYiIimO4EBFRcQwXIiIqjuFCRETFMVyIiKg4hgsRERXHcCEiorW1J90vwHAhIqKNMFyIiGg7w1PwL8FwISKi5dKFhP2qKfkuseA17MUwXIiIrrSxmb3K6x1jWeHlGC5ERFfVsLuwJ6kXMwyZYY+GiIiuIsWwT7FDlibdLPf9636ltWC4EBHRioYT6w+/n8dwISKiNeSBwnAhIqI9YrgQEVFxDBciIiqO4UJERMUxXIiIqDiGCxERFcdwISKi4hguRERUHMOFiIiK20+46H5ehoiIjsPuW/3FswMQEdE1VTBcuvkwVQQqfpvIfibsJCKio1EoXPrdExWr+UmYiYiorOPcPVQoXJBtoMzHCbOFiKi8tm09voApEi6i4gftbReYAhDpJ4qI2B4yUQzuIiKia2btcFllR5dod60yIiLaEcUKLfJhrB0uQHcBsrFrKKeNVO/FEBHRzbN2uIj2ey+j+aG+e0wAFYXOBRAREV1na4fL5dT+qHoPR8a6N0REdI3tIFwGWcJcISK6cdYOlyhWzAwiIlpk7XBpjR5sccvuIyKia2/zcFm2x2vhHUREdBNsHC7pWL2KjyBLo8gUCP41ERHdTBuHS64NkqzHsnCYMhERXXtFwmWMcNcYEdGNtbNwAXjshYjoptptuBAR0Y3EcCEiouIYLkREVBzDhYjoShudnv7gioSLAminPrbrGxMR0a4dcXNbJFyg2p5AySHIRER7csTtbZlwybbxiLeViOgaOs5T1ouES/RpYKIolF0XIqIbr0i4EBER5RguRERUHMOFiIiKY7gQEVFxDBciIiqO4UJERMUxXIiIqDiGCxERFcdwISKi4hguRERUHMOFiIiKY7gQEVFxDBciIiqO4UJEdFUJrveVKImIiHIMFyKiq0pxvS8WRkRElGO4EBFRcQwXIiIqjuFCRETFMVyIiKg4hgsRERXHcCEiouIYLkREVBzDhYiIimO4EBFRcQwXIiIqrlC4pHltuvlt2ilviIjoAGymZNH59nkfCoZL6E2gpmKbJgDC8c0GTUR0zXXhElQQdL9t8ZbhYmEiMp6I69xKRERrGA0K6T7Zj5K9tcBbhEvqpYyv6vJbx+8lIqI1KADNLham4vEh3sx2ba2oZLvIjHoW7cLa4bI8UgCI2MoKgBmAC0B9C9L7kN6KtnSzIiK6uayhFRVUUTBRgXj7Cm9XBQKIBY21ywqIQtK/UAii3V7Y2uESxHaD5QWg97XClxy9FG3AAICqQqGIdscwatYoIqIbzHsjVRRMYveRX/0+qH3YVxFoUGiwUEkBIxItaOC3F7R2uOhIr2V4zEXhqXkXkDuer8PuWO87IiLajEBFEIP3UKDQRqEzuy+nKUj28AF9o3Dxzsil1La0/S4RH0G2z5ELRETXR4RoBFQRNWImDWbSQMX3IkEg0XaT2Qd7r10dYBmxdrisQ9RiyHoy6rvDxg13ta1SREQ3lx+0D4Iogjr/LH8K4JH+o83+2s2dhkva55cn59imMSiIiNZlR+8VWccEQAyadVBS2ws7sL9HuwuXtO/Mt9J6G7CAYQ+EiKgMHz4r4iNyAWgD4NwOTaTqBc0e7CRcRHwQWIRtansQyb7XQuOIu2HJvsuNxWKxblD1zslQsdvSsZa8sTyAnYSLCiBRAPUpYSSd1iMAwqKdY746qS5P2fZkod7zWCwW66rX8rYPSE2kQlRtipcoqFQQoAiiEN89Vuaj/PrC8Ibt+Gao+P5AtfN3AhAEqMT+FaRRDPPP7m5Kb27enRuUj4ywF2GxWKzrVGHkNitr99rD2r7jq4F4u5sa0tGISk9Kx8Pbwxejj95YwXDpdnv1doV590xEIBGQOHiaG03XlDYsFot1oypLjjHpcbDeS/dp3T7QQ9VmR6nT41IXpguR7uO7f5WWV0jBcEns8BEAoLJXULVwaU/GB6Di3ZhUFaDp8Xll7/Fc+WPmepQsFot1ZSu1i/61hEEJtBq0f5UC0whUETKNkIna7U0eJ7mRPUGFheEN2xIAAQo01mXRaKMW4jmAWiBeiAKNAYgBquIFRBWrCGhMty+uCBaLxbpOlWbOGt6eKiBq5e2nAjFaaYRIA8QZZNqgegSopj6P2Ei3JO8o7YLIEx9QAPjYj/7HgDS49fo5nvzi0/jAP/1F20Rp7JF+cL4bOjxMu9QlUUgUxEcU0+9XhCcBOVNLVn+e+jQFiNkkl9ly7JE2eG7ZlqfxAvZN+eQlIjqISxu/dKzEHpOOX0utkFNAJgF4tUL9a4LmFUBn+bLmj01o2q0kai/etqfWcxLb/YSz24/i2e/5CF5417fh/M5DgFZQme+j/MynPrGjcFFAJwo8rJCTtC1pgzxY0gbMZcKSN7R3n2RBlL4nIroOlrWDsAP7SAGTDrkItBEg2DkvqAP0TLPjLsmVDheffbM3DDvfoO6560WCvwGA7XzLx3gTEd0UIYWLt6Nqh+XtUII9RCDAdOyEl/2Ey/ytaxlp3NvcsANSUqWS7OuusHb5mOa521ksFuuGVHsg39vWCYAJgCkgJ1Z6qh5CuZE2e0e2CJfUixhJwdRl60Xm8PtNDJe77fKIiK6Kru1LZ+eHCIToMyD7mfmww9loRNCIIoodQPAphPuL3KEtwiWXVnpsxfNAyIIhf8qiigL4iLKxai/b2Y4KYLFY16L8d7s3XfwR1FbrNDyXYnj/ZaXozsHw5aUTP9oStZMJ079Zmyxdo7wXBcNlxPDNVIFo8Op+UKPVXosgTW8wVmlf4/zrsFisq1s2i8eCRvnA1ftQu07ZVnXTVg3vv6yyeLD3Zr6ZTYEiiAgae9NW7luhcFlV96Z6r25xjXRkFhURXT/H+rt9TO1OumB8OjMmrZ1oNh+yIgumvDe0W3sOF9v0OBLKW9XwRYjoSlMc5+92anM2VT6YFNBoATOYW6udEaa7ZaR2Z+/hgp1vEhFdJ8PrPx2yShkud9PqlI2sEg4SLij45rJYrOtdw2uYHLKG67ZJoeA25ZbddwiV3H3LTwHAhz/0ewBRTC4aPPTNl/GWbzxtadj2q6wbJYXS+xg2nojoWhD7wN67qXdKyIrttqS/0uN9in8AEEE9vYVXnnwX7j/yGJrpifVPRjLhn3320+V6Lt2+RMnO9Jl/UWWwEBEVltrabHr5AyuyBilYFAKVAMEE0MlcuDBSiIjKEUU7uBkABBUEE0jetM9/xt+LIuECtXHUtg0+AE5SpVEf9ggFemfwpzNH+Yd/+GfbP/kHvQU1HPJ/BeqYDN/xzf9sKU1W2V6F0v/tmlZIUHTTfs39T5ivwiG0driMrFI3Q2c6WCXWNUvXaFEVxBgQ/Rouql34pOewWKxta3hRqUHB/pUrVeUOfpeo+fd8g4JYTI0sf5WCKkK0c1mgdh0XxAZoot0PAVQRYw2NjTXSkro5DVQaKBqfmDilVNuaF7P2rMhIB3eG/I3TUEE1AE0D1ROoTgAoYpqooD2DNInjyyOi9eglnxW97bh6v2/z8xceyug5LmO3DQ3b7S06CqJASIGRboBdFKyp/P9AVGtbRbrpYLC4K2ihlOQn88jGsyKvHy7wIMm036VdYQCquye49e3fjeqRtyDOLqAThYid6NNeBjm9L3PvPBGtJ30iXiALFrkiv3HteqaTA7dokEvQReGyLt+ObRYlmtphe5cEDaANotSQqV0DuXn1DA+e+Rqa+69AY2MP126XXP76ewuXt33xafyOZeEyINKdSqt+qeLT97wVT/6Rfxd3PvBdaB6cQabi3S+fosD/54wvkYjW542Ndr+qolmQyNUJlo5euTXepX57aQ2oqF/mODZQvUC4NYWo4PxLz+O5//kf4MHXn4FenLV7nVKQ5EOXdx4u6uHy9mefxnf+01+ESoQuvFhYR1UhavtzVQPibIrTb38S7/7JH8djP/xDQB2hzaT7L5KmK/CBAERUQui3wwJUsZtGRf22q9VUH1e4lGyv1t2qrLlHCAKgAeTClqQTQAVSNUBdQ2cXOP/K1/Clv/I3cP/Zz6C5/2q3nAVteKdMuMzfugERsYvSCNqV0SDQukE8v0Bzfo5Y19C6BurGDj7FpjsYxWKxtiy1T6/5bTFC/d90m84979grO2h9jWqbn4NqRNM0aGKDqA00+s86RsSLCygUMq0gVYA2jb1W3lZva8VUHA8XET82KINagUQgXECqme8Y9B4PGhv5ESZQqdoZO7tPJizWTa3c8L7LKs2G22TL8t3ZaWRQGh0kjf0eXqGyT+d7rpH1sCo3sKCbCj+vYYvbv3/uZ68CxBMAJ/YIVUg4heqJtbnTGojnPlmyjxbszfib1Up8rVbs/fbDJXU+gGw81xrBAtgzpYFIbZffDAECIPiosO5ttMeyWCzt/f6sV8PnIBtWqlCxym+7SmUNejeV/F5q4XuV1qOUfNlD6bbhOgyeoxU0BkS1XVuKCiJTH37e+HFu+PGW+fhavX3vHqv+7dha57Jw6ZJF2v1vaQPaBw2/ydgG23DjtD0C8Ws4t2Oy0/hqIhpY9Lt1mbyB0BUbi6ti1cZvGfH3JQXVsPqN9mgvof3Z5F9vatvnOwWiRkS181siFNrE1Pgi1gpI5d8uGz217voMk6V7T/J3JwuXYL0jiX7wBgjpHBvYuOqgQIC2vZC0ywsSISHapwxN3cuIEOxEKAgQ0QCoUcUZqtj4D9y7ahuWaEDwK1sO72Oxjr3a/7/ApZ+Kuz0YAvXfwvZ7sd8l+96GmvYf43s+/ENf+7t8Bco6XenqtVsUdGQ3l+3qsurvgvJ3b1DpQ7GOBNQ6ZSdADrd13RKk0zsUgNiULwroLCJeRGhdWXPcNvl+zZe5Wvz/rs//36aUaveo2fLTzAMj4WI9CkX0UWKX74pre1zq//vtVkADRCv7z9x2iDxB232paTVYrJtdCu2FwFilPVvt7xzgl9u127S9Lf2+uWwh6tdcj3J1Km+8tpK/f73g6V9ePWT/Diu/tPDWej/Q+f8T9jPuB15eEJvqpV1XCILPaJD+g6RzahUh/e+Y/4+VagPa/+81JwuXbkPTaTZpUwb/XYFuVQf/me1V7JNCyrf0n0J8iV16s1gsbX97OsP788csuh3tpW37t7e/qZc0V8dbi7Z3Hf13AdnV7Ls/ebAMQ0e0a9HKybZrJGAw905Y5e9Fe42Y1OK2G5htraL7cDEyd1tvFPKK5tc0rVEnCxeMP2Tk22HlBP4++Zn6inzt/Rmlf0ZEV5hAETRVHK3+b9rwA5oto/8bOfwtvcLVfrrf3HywpLaqC4/+ow7LtlZ8Z1y/VEIbM0bge8R6m9BuhR/s3yhFBtJPZRWDcLncsDc11h2yjbA70oGm9i4PUiIyQYFK1StmX6fv05RJ+W/OfCNsI8PsvuGn3StbPtqtbfs3NdgL1RZgu5WiNWb2qvNt3Gg7t7HVWkCFWKDIoGDhklLE1i/tQrRUEViPpuR6p7Ue/k9cZO1wWZkqtFEbIJZuyu8nuuEW/d6nXR15hSAIkirY90EQAqwkfa0I4t9fg7I+Rh6im1GfhXhu19aCxY79bEYetoV8aSMrkYYWq50cCQDqJ0p28u4J7ER2qHdqfXkFeiubKh4uirSRaMdWB4/P3vErohtI0vxOENShQl1N7AJ7Pn1SPRHUVYUmpJqgCRNECdDgM18Eu6yFSuVDTYMd0EWAoEKFgIlfNmpYYSS4jrmCBJ/axCZj3IwiokKNCWaoEFFBxU7mVhF4pwUzUVxIxIUoLgS4EGAmgpkIau81lBEAmQAygaJChP2bjyS0nog1lsGv6xtDhTpMEBFQaYOgdXbaiIlQRImIokgx1PZexhJzh0q9W61ub6Ynjdh0MCI+dIzohhLxz83+rwpQx4hGIxo0qOMF6niOWTzL6hyzeI66OUfdPEDdnPnX56ibM8zaOsdFc4FZc95W9xyr2VWseN7u/tlW2tkWY0Rd11ZNg6bpplNpYkQTI+omomlie3/dNP51yepep6ltHdJ6NU2N6MFh/2/SAXs7tcO2ZJw1uT4lV+oXLXrwDmUTV/4JxOkFbn/rAd7+9LN4/2d/CaGONk+ND4UEAK1SUgb/JKE2tFh8aoEoUExw6zuexLs+/hN45Ad+EHp+4Qf5rZumSGPzt5P2mR7qzSNah3hDAdjlNiKAi1mNZ177DF48/woibKqWuYa0PeCQfvfS9/bZ1L6zYwXpce3egcHyrtLvSdSIhyaP48OP/n5UJxMEqayHt4FGG/tEX0e88C+fx2/+5m/h/OwC08nUj0/Ahj/Dx3W3x43teE/0t7yaG1yxCbHz//yYiogdiLZeiCI2NW7dPsE73vEOvOfb3oO7t+8iBEHUyh6PiIla6KYh2+2POEb7DB8ucP6VZ/HFv/A/4sGX/zni+ev2kEWrni5rYN/0uzsSIAqoTHB2+1E8/T3fhxfe9W6c333I+1Su/X8KfLI/K/Lm4QJp/AQeARqByhS3vuNJPPXxH8cjH/kB6MWFP9neUAsXX8wWGC501aTeiwKIUXH24Aw/9+W/jM9885dspvDFv/1tYweNCFL547t7rTmU9lQCaxjyRuNqabTBu269H//Jt/807jx2GxO5DdHJ8GGXEgjOMUMTIi4enOEz/88/xc/93N+ExIAn3vqktW8CBARoVET/AJyalEYUTQVoUEx1Nrcran1i556EgIipBY0qEO2yxGf3X0MVgA9/+EP4A3/w9+PJJ9+GEAQST7wNjRC9SM1t2/aJiE1SKoCIh8tPXaNw0abruTz18T+LR3/gBz1c1PYl+gqUCAOGC101w3B58OAMn3z6L+DXXvo/srDQQSsgvgdb2llxMTiWaw+zT+Cq/jpiDdFaslzaiiXdVhqNeOrWd+HPvu+v4pE3P4RpuAPR6fBhlxIAF9ogBsX52Tl+7Vf+MX7+538eH/3BH8Hv+72/rw3sKtibZ/OPTOztTtOqBDvBfLLlNpl0QiugqOyt8ras0YiXX7iHT3/6n+DuQ3fxQz/0A3jb25602U50CmiAaoTgAgh+vMiX2YYLAMg5zr76LL78U//TkYTLxMPlmWfx/t/4ZYRZAxUf9LZKuESBRu+5fPsTePdPfByP/sAPIp6fA9D2TNHFewvXw3Chq6Q95uJiVNx/cB8/+8xfxK+9+PM+RdJIsLQX6kv/233+qGFDca1+ByIaVbz7zu/Ex9/3V/HIm+9iGu5uHC4zjYgh4PzsDL/6j38F/+cv/zL+8B/6t/Fv/Rt/yN5PtSmr7E2tgHBqPwmFzZKs9rORMC32RqdQyPM/asTXv/Y1/P1f+EU0scH3ft/34m1vewIhVD6wwXsuMoN6sHTtqdiFwyBduPzFn8GDL/3GQcKlvwMz2++n2PQ99H2WQPYL4SfxLNk2ousu/3Wy34fULPjviabESOV81JB9wvMpmlTt36z6z73q5e8TJBtFtVGDZCS1RTaEW0RwcjLFnTu3cefOKe7cueVf37avb1e4e2fidYK7d2/h7t3buHPnznZ1t6u7d+/g7p1bvmyvO7dw6/YpwsQ/uKd2U20otartTULWuqajbQB8JGF6F7vbS8jipqslLzEIF9sYgf0/36yHYb8gy16U6CZrfzV8Z38XMLn0fd7g5pMMDhvj61a5NEx3O+nYyvzy002pyVRAa0BriNZtr2X+Z7SBkZfut9Z2k6bZjtsn2Psy9vR9Su/AYHVH9X5i3TQIsHHWAfNPT92l0a3MphjoHfRK+3+JCINfn/ZDXBscw1/ZfoPbNpL5w4ZPuU58puft2fsYNdhEuj6st9dUSui/ucP7S1h5Y/o/d2tHs12r7W6obN3a/0Lqx9tSe9wenNnaqu9C1+LrCSBVO6S4/1ZK2zUNEJ8mPHVVvbvaTnjZza7cC5j2JKhVV43oehL4yB6notDQ2Gzkg2nyu1KfrbybQdmGOKVLjKdpQI6nylA0MoOG2k4q3IBC/DIgM7siZ3MXonfsoD3Ee0Z5TQBMATmxClM/6bFg++W5kS6ZYKdmeOVft21v5QOXa7+0SbA2NU4hcWIdg/Z5wa8I/AAI59l27fcD/virKRAa9WM86/5AC735RDcVP4QVlR+TMD4SKNUxWWt9+tsVhpt5YG24SHrD2+2LPirB1jiFovVJ0kFFP7CoNkoMafbNtJB2n3KazsGmpwDy6yj0j1euUyj+KYmoFP+FUfu9QBp+ms0ZBaR/0z59dBdwmmsQL9f+XhyJYU9moxoudG02OrXCFBM9gTQVgjZAnPmVcX1Md29f41jvYTdJJN7sCrLFa9oLZD3cfGaHvKejAkDs+ltoJy1Nb1wF4MR6YLbQ+Qa015hmfPBA73uBTSkT1HpZ4j+cfDH5Mvo9l6y7DbtSWvrRtgHjJ2ilP+3S2zHb/nf6T+E/t+5Vs7Bp/8z/+FYtW1OiY9T9L23P7ep+Y+z3pD3bOw8T+1DH/9ku/aJvzFqZkGZci2IXLNTGwkUwHyxLawcW/KhTq4t0Dks6Ab0ttKME2/9X/n/NKs1ZZs/s/veN1WW0G7CXvQ3L3pnR3WKLAq1n9L7swFvvyflL2+2jTye6SQT8Tdg5Pwlc+k0yMPyoPWwix5rLHVrpv8FKD2ota/j3oRcuaUWW5pnK3D5h65alg42anRXcLUEleGKlx0afvdPm7dmkRteP6Mrw34eV/iezR7MZa8ksVAbXjm/fy7znkg1SGq1DSm3r/P8FUTvmMramSzsJOzTac0G7e2y5bjfa6g61oUREtD/j4bICZgQR0Q013Ks4YuNwISKim+myYAHDhYiIdoHhQkRExa0eLmmkVysfucAjMESbS79L2o1WUr/4niIbfUl0dawWLpfuYGO4EG2Pv0d0fawWLkRERGtguBDRzWPnVtIOMVyI6ObSIzoB/5phuBARUXFFw2U+/POPBNk8PkSUCdkFndxKs8fSKlTT3ME2deVYS3XcruI6FwkX+8/fXn+gDRHvb7bDKfNwuVpvEtFuBWh7pVbaneH1oa9SO3SV1tVs8L/ZfjjdZVq7VE3xgjTvjNqnhe5xjh/G6NrL/pMv6n2k6y1l106iMVt+IBW/SBsAkWDv+WB5vc+/h+ar1rsUdnfvlbF2uIgEiNiJXiKVV0CQCiJ+cRoVoBHYTzRCFYgxeNkV+dqTxYiuJfUp3u16IsMTjhVil5wIERoaQGq7zvvcicn570pY2shuMkv58Uvbv3nAqCqaBmiiQGWCBgJMJtAQ7D1TIEZAowKpUt4Pa5ey12mvQCkC1QaqDaCK4FPrhyuwx7Rc666wn9LOfwJE193mDen1VKpNEQ96a6eO+l1uL4et/mH+6llprdcP7hSr2aeO/ADlsUcu0T6p8oPZQmXeE4VdyHC4qylq11c8GmmTB5ueeqZ5HbOVwgWbhEv76PQOrB9RRDdD/rsh/D0pLL2jEIGE8SYvHZM5bup/rsK6rhEuRLQraQfNsKi0vOcy50h7j7bGtovsKg3+YLgQHYU8UJY0gLQxTfkBZE22v/PH8paP5MbITVcCw4Xo4DxYNJtqn4oSVYQYEbRB0IigNiIvNdxH1RCKtiMNu2gRCAQBgqByw0aLEdHmeoHC3WIlWRusEE0jxOZ3LYmkXWZH8r63q2FfCIAgFjBXBcOF6NCO/BPodSCqCIgQNFC18WHi542kA+W9vZJ5tyBlzp7addt9FwBMvDz4RKAi3aQnR47hQkTXnCAgotIaQev2hETRrgFUiR4gKUHyUycGAVOyct6hsjnQKkBPrbyvFQFEUcTrNhSZiOhKEu+bqEIjIMFOppTs8FYQPx/viOSDjlXTIOSrg+FCdHDZR1mJPg2Meqs49hH3+lPAPqEP79iEAhUaVDhH0AtMmykmcQLRCMHMDvJHn6ZH4AdgUtgIIhQzKC6QZlfe3PC5w5MiNXgHRoAoNRq56EKlnaemAeTCpgw6rtM/e3YXLuKT9nRj/4hoVL6fJPt9WRYsc63SNatsM0sQsZ1LGhsLDI127EUjEKOdP9LOLRahbVlvx6bt127qsdSpWKNSc2jPtS/SuStWEVHtNaynYusnkH5bqukv//5IbRwul/3MVdLmZwfKiGhe7/cjdNVmSx4+Xn6A97qWSPDBt2UIKggqaBTE0OCsPsM3X30Vz997EfdeeBH3nn8ezz/3HF645/XcN/Dic9/AC/eew4v37uGle8/jpXv38MK9e3jh+efx/PPP4/l769UL9573597DvXvP4/l797L77tkyn3sOL734Eh7cf4DYWK+kew/Szz7bsCMm8sQHFAD+gz/2Y4jTc9x59Q28/emn8d7f+EcITbT/55J/mpjPIxVP1xihtSIi4Pb73453//hP4tEf+GHEeuZnlo453m4d0a4oFDHM8ODBffzcM38Zn3npl/qd/HSA+QaL2uCdtz+AP/Xen8Yjb3oIJ3IHIdroqXUoBJOmxkQj3nhwH7/y/30a/9vf+9/xPR/8EL7/Ix8BxA6YV00Dm5BfrEfjo7Mg9oNQKKAWfFv3qDTNNyNQKCQIAoDZRY0XX34Fv/lbv4U3v/kt+OEf/ije/vYnIen17cm+S0wArdo2OYjNOK8QIDzA2Vc/jy//pZ/F+TOfQ3P+mv2fWqW9VUA1XValCzStJji7/Sie/eBH8NI73o3zO3cBrdr3orsYG/DJT31ik3AZe1fVHhN1EC7/qYXL7GJJB26FjSW6ZhQKDTXOLh7gF776SfzWK782OGC7ylly+e/iZY+9eqI2eOL03fh33vUTePixuxuHCwBUsUGlirPzc/zGF/4F/tbf/rt4/cE5Hnr4UUhUBAFUZhBEa7Bl6q2sBz0iBBFBQ/tBWQWD6WTs63SLQtu+V/papOuNaVQAAarRwkUE9azG7GKG09NTfM+HPogf/r0/grc+8aQvIx3xsV1o9krdQIQgAo0Whhoe4OyrX8CX/9Inr1K4LCACRFi4SIXb73sbnvr4T+LRj3wU8eJ8+OjMChtLdM2kcGm0xvNvfAWvnb8y94jRz3E9i8Ll6geNN6E4qW7hbQ99O06mJ5jEWxuHS4gNKgBRFS9+61v42r/8Bu7PIiRMMWkUsa6ht6JdKCVWUD2FQFE3DRQ1gjQQRNzyq4VapyNN4Z/M78bLA8a+9+Za1Xuq3jPynsxkUkFnM0wmFR5/0+N48xNvwfTWXX9WA4g9r9sTlALAwgUpXOQMD776BXz5L/01nD37OcSrES79f+2NamyDFIiNopEJbr/vbXj3x38Sj37/RxHPz7xrqT6tgS/iGvwSEK1NYTtDJEKhqGONqM1qebKSq/97lY7ZigiqaoIgASFWEF1jl1R+XqTGtsWaNQ0u6hq1WoMY/CA+Jt7MqQCoAACNn3CZms7J2E+ovalrE9H+FCxOBOl4vN2aN4F2QTD7pgoBGq0nU00mqCYTSLB1sef6UlXahl/9MIyIQBsbVh3jG7j/7G/jq//1z+Hsi/8c8ez1wXQyucHthwuXdMzFXlSgqLSG2l4xaARqmeL2e5/Euz/+k3js+z+K5uwBEIIHSxpmSXQzCez3PDWgOTtjnMbem3Q+49h9iyx7P9sAWxLq67zWJsbWLy5amVzqQbUBYD2XWCtCqKB6H/e/+Nv46n/113H2xc8hnr/ujxp5QQCKJv+mSLjMH52/VL5ylnjRfwgtP/4S0o8sdeEk/cVi3eBKB11Ziyv7ZJ5X0fdNbTya9SvGq+jrjdTmy5+XDtGpKOR0iuph3512oAFma4eLinfnxbqKNupF7f9CsNEV1gENFj6SZveMnkXBDpixWDe0FF4j90Wwor8/w/dm2fu2qIbLHb6GXvKY4fJKl276mu2QdRvppn64xXogfuBfAfjepdQR2Ke1w2UptU0JItBgm7Q4Z4mIqATt7U7zg/qAH+s+jGLhkjKxy0jPy7RvOSsiItrcorY0CtAEoLHBuwf9dF8sXJACJoUIfMicB03vcQfaWCKi60wV0CAWMqsMO96hzcNlbPddPrLCd5HlJ/kQEVE5+ZGUdo+RBhtDFcca6f1ZO1zySxwM5ZsiSF2UAJvYoG+4q4zFYrFYqxVSmGS7veyYS4CeN4jntZ/Ffzjzrf5lxEaA2ZgwO2sVko0EQ9VNeRBqaJhBqxoxzBDDOWJ4AJVzH9HAYrFYrE1KYFfStHMjFRIjRBoEqVGhRkBjZ/UfyPrhkvonkg7ZR7/NIlU1TWcAPwMmbaB/LbPsREoWi8VibVf2j0T7QgSQdPpH2z7v3wbhMiatfDodKUK8N2PTFFiPxuZXmAI6yW5jsVgs1tqldilNUfW9SD4HmtQ2cwqqgx7zLhQuTrxHIzNIVUM0QHQK6BSqp9B4G4gPAfF2FzIsFovF2rAqnwGlhuACQc4hcoaAiEk8RaUn3UGaPSsbLrBOjKrajKFQSPraJ+uTdjZPIiLamNi+IpFgU/mHAGkvz+z/VAfruGwfLoJ0XSP13WFAVZ1CMAUk2DUqmhkEr0H03K6JgNSNY7FYLNZmVftFwwDR2wjxIYRQoaoqhEag9yO0yaeL2W/KrD8rsh01SnvA/HhLhIrP06MBCBVuvecteMef+FN4+EO/B83565DJAwCnVioHHcVARHQ9qJ3qoZX1WsLr1rbWivOvvICvf+J/wYMvfRbx7LWlB/d3MSvyBuFiK9ed66IAGiiCVRREVZy+/XG86Q/+67j17vchzh4Abbic+PbNbDm2VCIiWkt2DYLUM5GZXZsGiuabr+HlX/zHOL/3ZejFgysQLi69rC0ywvozdunORhWTu6eYPvpOhNOHoKih4cwP4k9tjLZctBtaMmDG3zpaGd9AoqtB7K9+0zz1M/MjoDXql15Fc3YGxLpt/uepnzbSfrvvcLFklGwl0lTOKnYxT8AO5qsCQQDIiT8vIkpsE1YAiDZQHc46tj1bIyKi683a/tCeV+i3evnZlQq7gmP7gAWtox/uAA4cLh4jnnj96QgQ0V21phcd2n4vIpY+0TZ+m4CxNei/ZwvePiKiI7FNq7fM2HJXaBF3EC6rjRZL84llQZBCZW4ItUg2CM26WxEROrYApOsObF5YcBuLxWIdb+2Kfejv12GsFC6L3pLhagts2oE0t5jdmK6xaUHS3pN6asOFrEkLLIOIiMpaKVzWlrpYYl2r4Cf5YBc5MEw8IiI6uC3CxY/DpMr6NirRjqmI7YeLCIhIj7NTKNMuta0r2z3HYrFYN6mO2RbhskjeNxGI+tQvxbssREQ3U5QiRxV2au1w6Q4TdUf5tU0O/7d7EJD6NP59d0w/P5KzTeW9JhaLxbr+JZq+Pl5rhUsvMyS7pRcw4n/6I8zsbcjCp/fGzL95q9e2z2exWKzSNWb4mM0r/3OsVgqXsf17OnJ793XXm0h/7ETLdCaoDRq2Ey672wC1i9ysWqkrlMfe8HsWi8Xaa8X5tqptl4aBkG6Ht5n5bctLes89PiuFC9LmrBSSAUErKwR7K1UAta8Vagf88xBQhWqEakRco9IJlCJpQ3xZ7dk1/MM//MM/B/ijzXwhIqr6ueOLgmTstvFqTyA/UmufoZ8uUazIgjYjKhBM/LvGvw+IbYNfQ+IpRB8G1LK3Z2SZY9T/Uvsrv9XXs30oEdH+LPsULg0gF9BwZlPm+14bC5tgbZhkreKSZQlOEOJduyBjCh31C7iIX1IeCoRzv8S8nyKieZ/CX2sHZ+gXChf7QiBtz2GCW3hI3oJTPARBhYAJFA0iakTUUERUkvobXQbrGhcTE3s5D5p2CdC0LkREe7doh5B6gy8AphCdeCtlLVYr24V2GWv6o4dDCpcAoEYtZ/hW/QA13oBKCjL4Y+Cvcezhot1JkkBEoxe4izfjPeGjeEzeA4GgkolviiKG+9DwOqpg4+m6HVx5SFxOfMK2Ye9l9SUQEZW2OFxEGkBPgHgXIZ52jWjeW1m1BZMakAceWNEWpcF6O+EBzvASnn7jHu7L19Hg7Ir2XHrh0qDRczwu78GHwh/H2+VDdu0WUZ/Bc+LL8TdjW1momBILJSLaVGqUF1D4lPhZgw71Bn7J88ak3WC92wIweQmvhX+BX3vpC/jm9P9FLa/2HzN07OEiAKANapzjrfJ+fDD8+3hSfheA+74Cdr1ne6BtzJJdikuloFfYiDMiouMwHy69jomPnO1Lg5zWaxBt19rwOQGoXsZr4Qv41ZefwauTXz1IuCzqv/X0R9RFiCqCprPvxe5QT0ytIFrZVSnF0lhF7blAWnN/vHdgRkbtLa1u5LItg8VisY6lEOeud28H2L0ACAIEVVZTiJ5A1I/FeDu6vNIxmyFfkfT1gawULsBYGFtA2KzEtgGiqSviR9rblt/Picmf3i4w3blGDZ+bnVfDYrFYx1FjrJ8hvhdncVVek8XVtnvHaaVwUYEnYGy7PhYdqfsAiLZJA2i68HHqYvilOENaTjm9rhuLxWIdskSyD7thrlK0mGz3S68wv9yldZxWChfATnxUiVAVL7sd0PY2fyiA4MOLG++5BGjw3WcpYPL3cWP25opP7c9isVgHrfZPGK0ueOCHB8Yqz5rhfVmVaUR3ZsVwGSN+jGVsl5Tfn6VqaAcEeMAUCV2b08xqfu8Zi8ViXb3KPswvreMNFmwXLst4aoyEh/d1hjdvREeWT0REh7eDcMlafE3fd7eViRUiIjpmOwiXnPfzxrowRER0be04XIiI6CZiuBARUXG7D5fBHrGiO8l4AIeI6CjtNlyGKZJmJSgUCoKRqRdYLBbrhtQxKx4uwzzJbxCUCxYiIjpexcMF3psYteh2IiK6VnYTLsMbiIjoRtlJuOSUZ9ITEd04Ow8XcG8YEdGNs0a4pEHE6wz3ssex40JEdLOsGC7ZlJ0+Bi6fiXgxv/rLXBYtfRIREV1xK4bLZVbpzfiFdDgemYjo2lsxXNJZOzGLEftKYT2Y2FZAjHcBnNuVKNV2pdmVKgHEdA0YIiK6rtZo5cd6Gylg8u8E0AkgTfacvGdTdAIYIiI6QmuEy2KMCiIiyhUJl6XGOjxERHSt7T5ciIjoxmG4EBFRcQwXIiIqjuFCRETFMVyIiKg4hgsRERXHcCEiouIYLkREVBzDhYiIimO4EBFRcQwXIiIqbvfhwlktiYhunCLhwrkpiYgoVyRcUufEr4BMREQ33NrhMrzUl3iohEENqfhFKYcLICKia2ftcNkGezVERDfDxuEy2gkZ6ZGo91qIiOjm2Dhc1sEOCxHRzbKXcCEiopuF4UJERMUxXIiIqDiGCxERFcdwISKi4hguRERUHMOFiIiKY7gQEVFxDBciIiqO4UJERMXtJVw4tRgR0c2ycbhoVsukKfmJiGhPNP11uI/2G4fLYnNzJbc4OzIR0Y6peLBEQHfQxK9o7Vce9lbSlPoxVWgQJ28A8dQXb49ur1I5XAAREZUjCsSHgfoJ4OTrgMyGj9iLtcNlTMoKC5roGzOxxXOfGBHRHimgUyDeAcLrAJrhA/aiSLhIb1eY/5tChdlCRHQA1+6YS4a7wIiIbqTdhgsREd1IDBciIiqO4UJERMUxXIiIqDiGCxERFcdwISKi4hguRERUHMOFiIiKY7gQEVFxDBciIipuPFzSDMZERESZVWcr64XL8qnAFl+n5TIWVJs/n4iI1qOQJe35hrwJ1xXa8jZc+iuRgmAw0/HCNV14BxER7VXXdivUW+ctP9wrAFWoCBQBELk0YLqeS/44ASBihbTgPHD6ZSvfTe/cRY36TVtuGBERrSi13ZK1wZvoWnLB8kMlY3f1j7moQtVyRIMAknaVKaAKiSlAhmXSVxERimiX2QQAVP7q4i+ZFxERleFtatvett9cKgWIPStC1dtvDypRIDTZY0SgEhARoAiIEMsOf9lBuHT/5J2Vy1Kru1hYP2zmNmrJMoiIaBu7+7Au3rmIAdCAS3eJYXjMJSUOYBmhabdYusHTa1nQmNRjyQMl281GRETFqHS9BhUgiiBC+m3xEuI9iqUttAIhAojpUUsfPX9AX4N1d0T9lXrPz75ZGDC2luq71ObMLZOIiDY31qjKoHOw3NgSesR7LGL5YAf2Bx2Sgbl+VPuEdt/Y8BGbKrYgIiJqjTfUS9r9laXj7Qo7Dq8i1gFBOl6y+FW6nosAqrCD9j7kTNRWeHzViYjoWtOs7VcgqCJEO/4yPDwyjJlez8XutL9D7O+rW7ibi4iIboDUzejHyKJdam24pAP13civ4dEdhQ6jqlV8HxoRER2NYfvehcOl4dLTnoCT36aARAB+Zubc0oYBw6AhIroeBpnQ62gM234zFy5d78QCxE7UV6/Yjhbop0u2UGn/6t82F0ZERHR1pIbcgqRr9eeDBWPhYtLBmpQI40/uDJPrsscTEdHVs3rbPggX8ZsEQITE6CPGFKoNVJv+w3uygJE0bQB7LEREV59mJ2Su1rD3wiWdECPqc4uVUGgxREQ0ZrXGvozVei0YhkvifZVuMYrB/rY48iJ2v/2p7KQZeGKlr4mIqLCxXVX5bYWDZ/hSC/TPc8nXRWER0wZDCpc02/GiVxAErfzMznRyzKLHEhHRtkSHJzWmcAllm981ltXfLea7wrrdYnkhC5qOYPCCDBMiogPL9zSV14bZksVn4WJf2hPyCZWHXSrJDvp3t3RlryaY2HVc0uOWzXBGRERbUojaXMj2nR/aWHjy+zJh0Pfw1t0nrLSOkfqAL3usDGbN787QTxHkc8f0jpOkeZwHoTJHu+fNPyqFTHrMJbFHREQrytpTb/RF4Rf8urytzafrV//e8sTabYV9ny/FOiL9lj49DcPdYhiEgq1SulZygMw/vNMGRmcuYDT9tXxDiYhoVak97f+bYiEdzphrjzOpVR7JCwsVgfeD0mvkMdLdkuv1XIbBYrfav2MLm9e9uPS/7b7Q/I72TiIi2tRg11feUl/Wao9RwKdn6W6x27r7LTHmAybdsqQr0jX9eZdpGYV2112ek8JkhQUREdEl/IR18ZG5C2KkdHO7ah4sDRciIqJNlAmXFGGXRRkREd0IRcLFhqAxWIiIyBQJFyIiohzDhYiIimO4EBFRcQwXIiIqjuFCRETFMVyIiKg4hgsRERXHcCEiouIYLkREVBzDhYiIimO4EBFRcQwXIiIqjuFCRETFMVyIiKg4hgsRERXHcCEiouIYLkREVBzDhYiIimO4EBFRcQwXIiIqjuFCRETFMVyIiKg4hgsRERXHcCEiouIYLkREVBzDhYiIimO4EBFdaeJ1XIqEi4pCRfu3IQKIABTo3aXA4LFERLQp9eoTFaiI3Zva6D22vUXCpd2wuYAZ2u/GERHdDGMBM+zRjD1md1YMF4WoV7bKXaU/ASK2yIBqpKMmgAZABVC1gnoPh8VisXZVqa05dJWjACIEsb0hLV+sjU2vKAKIQCVAEUZCZzdWChfrTUWr9g8golYIHiwVIBUAIIiHi6pvLIAoQBP8Z23homigiHMFvbyGz2GxWKyxgsTUkB22CgaMiiAGQfRdX11+eXi0L2XBAgnePuddg76Sa7hSuMwTe6qmFOyvZ7eCaTUtcMY2hojoxhD/tF6MQtpmNW/OA4CAgEnvdj8Cs5eWeINwGSSeiu3lygNFFBE1FE3XJU0PSsvwrlrv66w0CHBZjTyPxWKx8lIvb28PXNp+Nt+6UjPc7g7ztlXTC0y698Ee2JVGD5rdCcMblhtfmbEg1rQRAg8Q/zfd7z9wkRRW3Q63bMfb0uIf/uEf/lnpT9auHrysgfTyY89rl7W7Ie1xa5vXLEwGbW734vuxZrisxt4z39fZe0fRbXybqN1/gGF4sFgs1rbVti16LDXSLK6rPYwjCOpdGRE7ttQuPB0j3/bFNrOTcInQ/sE0jfNdt6P7gbNYLNaeCsi7LxuUtaOiwY9pVwBC96FeGgD1QUIl2ThcFP4epV2ZaTAEBBUqRESoqh1ygY9UgABSQRGgUaxU7Q1RhaqMlPeCWCwWa6VSbzfERqhG8cFHqQ4tHz22DQEwgWKKKFMoJtAQgTCDhjNoeICAiKBAUIGkBntPNnqn83XUNJI8D2QAMzlHLRdQaexRGqHSoJELRKn9Ud0TRC2FrWwfKYvFYm1TPfmH/mvA9g9FNGjQoEYjM9/AAFVB1Gb4lO69Gd6xA2uHy7BjBg+btqCIaLINm1i6ttMP2FIUNRQzO/Cv9ixo7dUMzmkZHsxisVisZTU8ibL2f4+BdLt+2t1k6zf3AoUgIkhEJRGhbV8riEwQJACqWdjaa6z/SpsReeIDCgAf+9EfQ6wucOebb+AdzzyN7/jcP/TeWzo73w4UxerEhvVBEdTGhPmiIAhQKBo9wx15HB+u/j28U74fkCkiHiBiBvVHpg1M78e+0pSIbpB8GK6ID889lpDJjXW1FvAwSse2o6QABSpMIHIKQPFa/Co+ffEpvBGfR4MLzzOFRHusdQacvydt50EFIRvJCyhUAs4eehzPfvdH8eI73oPz23chqEbfz5/51CfWD5emOgHERyCorZoFokeGAqoz3A1vxvvCH8Cb5H1+WL/GDG8AqgiYoMIUEEHwrdksu4mIViD2sRaoVm/E92qNcIH1dhrUqHGO6L0yheJUHkMlJ1A0eCPew+frX8KZvoyo9sH+SoRLtxqJRYOobUC6LfhZovmsZAHBh891PZj+soiIysn3sVyPj7H24X54ImQUwQRTKGpc6BuocAKgsYEOAFTi8YZLrE4AyPwU+12e+AYLFNqew6II7de2Vfnz03QEqwfM6o8kIsoD5rDhUubVu7Y1bztVYA0+bBSuSAC0gbZbv7+ey9oH9NMb0w1r88qmGRCxTQ4eKPB1l/yAm+8vtEpf538iVBYXRm5jsVisRdUd2U4TWR6oegMNNi0FYFO42FzHdnBfVH2wVAQEvTZ23x/J1w6XLukG37c3W6hUKgjRzn+pVCAxQqIiRBsIYDMsW7du2LVrl9rG6HgN4o3FYrGOu7xp60ZwbVEAgk+6H6DwMwitfV3YtmZ8GbtSyd23/BQAfPhD3wcNDaZnMzz8yst4/IVngd4bYysZQ9X2UFI7n69gADBFQIg2BK4S66TFGP0UJmmTt0vTYa1m9UcSER2e5OEyDJ61SyFiwZIufwLfVyT2Kv5vv6UUPyTRPS4/Tp705320mwT1yW288sS7cf/hx9BMTyAI3UZl/tlnP71uz6V7IfWIyEXYHq+qiagATIJgKoKJBIQgduwmWtcNflb/fHcv7/bNrzQR0bGz0zV2K/Vg4MdXVK1tFZ/Q0q6y5UcssqMz+7J2zyWtnqh1v2wXl5V9LahxCzUq1JhiplPMdIJGp4hSIYpf3EYCVOzAU/sK6biNiPeB8n9ZLBarRHVTwShCe4XG7jiyH7/Idi2l9k9DACqBhoAYbO6rqqn9Yop+wmIEJvUsm5jXDgdoEMSqssuJ+MfzdHL5OgWx9YmVIIY0w40gpk3zCzC2s9709hIBwWejTwWxx6StT9/tuediuhFk8wUADQQNAhoNaFTQaH7YKR16Cr6n0L4fr2X3sVgs1mo1aMFGq3vc2HPsVrvZG2SxRliDBVQMVXvYIE6miKHyD9HBQknRHmu2E/O7a82sVfAP4gogKqSJqOoak7pGNbtA1VygamaomhlC0yA0jY/2XWR+W0tYcygyvLexmAXCCSImqPUWVKdZ76SBICJigpne9uHJaZ6xwTb6VAWLiCex/SdY/tjl1M91Xb5dy4lvh8CuUb25gBoRk+HNa0lX1d52Xex92f79hb8zJdYHBbbL3uN0udfN2LooFJN2GzchaHx7Nl8Xb+KK/Kzs92r793j77RIfDWXtRVqvddl7EjCV+5jgrP2+1Q7HFQRcYIJzBJnZy6u1DTkNAQLF7OQEs5NTxBBQRVtCFFtu1SiaSdX/b6GKEBtAFPV0ivr0FLGq2g/k6xIIQlNjcvEAk9kFgjaAKqazmfWQwgTQgKqeIdQNoN2uuvQTSf8qgIhuHjLLrO2HIhcNF0XapaU4i4/j5fr9OItvQkC0FRTbjAt9CA/im6FqXcZNfjmD2Juhar2bTQkiRBpEnQ7vWkuFC4+pTZdjv0wTOUOtt/wXYP33Bd54ArrFupggMwtdDRuuCfzTnjVaURf/31mFbRe2CF/7vzmRB2j0dKsGNKCGSEStp/6/b7N3qJILRJ1stS4ChYg15mr7QTYi4o2pwsN3c5WcI+p0i+2yD2xBatR6a8P32D/lo8Kd8CJuyasjgedfq+AkfBOPTZ7F3fB8u94Cn3g3CYLpxQVeeOdT+Ma3vRfnd+5AYtPuAoMCEhXNZNL+f7M9WSmoFBe37+DBIw/j4tYtVBuGi4pgcnGOW6+9iunZfZ+PUXH64AGa6RTN5ASnD87wjme+gDuvvYZqVre77ZIuNq5EuNhYMEjEc7Pvxa++8WfxjdnvQYVzP5yUgiR/Q7tPS0RE5Vi4zN82Hnhvqr6AD9/5H/DeW7+IRm1+rrlwEcHdb72KX/4jfwx/70/8aTz/rncj1N5w++PULy8SRSCxQWiiH5uw59tw4WgjakfW8DIKW461pN1xGGhEDAGzW7eAKHjqt38bf/y//M/w5Fe+hJMH58PFXMVwCRBp8I3Z78avvPHn8dWLj2KCxn+c6YfUDxciot0Ya7qH4WJt0CPVl/GRuz+N77r1d3zvgfru7n4bdfdbr+If/LGP4e/+6Z/Av3zvd0Dq1Dvp9uaL+rM0feFrIuLnocCXb/+uT3z4sL2wih1/0VBBqwCJind+/mn8h//Fn8NTn/9t3Lp/f7iAqxQuAtXKh701+Eb9u/F/v/Hn8dWL34uJX27TbPJGEhGV0g+cdFzl4fAV/ODdv4LfeftvoV7Sc7nz2mv4h3/0Y/g7f+bj+Pr73otQp/bVxmTBD7arz0Riu6LEp2axwwNpDcaib3U2kwnEj7cpbASYt9tv/+Kz+I/+8z+H9/z253Dr/hvDJ+88XIYRvrl2GJ8fWhlIHUDlCDAWi3UkZbq2K7VWCz8ECxCr4MOJu9sAe4qoALELlm4x9oXN52VBs02l4cdqL2drLN62tqu/XXRtq1y4rLUheSKyWCzWPqvTD5nVqADRhx8jNfgBflDfX8UPnveWnL4RtMOK2/P61ix7fgqYvCz4upFh621bSQXDhYjohhAB/NyVYHum7GbAdnsFmSs7zJ+6FWkSyw1JelGBaIUQK4SYpRcCoNXoXqR9YbgQEa0hhUnebqfRYurt+6LzV7zZt+lZxh+ykvT8oALRdJyl25snaiPSDonhQkS0Mk+PbJBTjyAdfOl2jfmxmK5sd5VNN5MSYb3qLc87UmKz0SC0QeMDDA6E4UJEtDLxXVEK8TPzTfra/rXjON7w256yXtBYF2fzcGnXo4s7IH+dtDb5nXvGcCEiWom11OlgOWCtuGTnsnQWt+pzD90hO8ZzGAwXIqKl2v4H0E7CC586CoBfAr7/2AHxq+sOLi3S79GsXmNUfYyAjySz3tXwUb7rbHwtiyoWLm0vL33f/5EQEV0Rw5Yrtebqsw/PIFDEKgBpVpf25JK8dmHQouZfCmxQgfeuuh6W37/ntrhYuOTyt3WfG0NEtBt2gD5Em76+3RWmdh+g1nXwx3anNpY0DD3Yawy6MuIPUZG5QQf7bI/XCJfhRo2xjRzOxnvZs4iIjkk+k0hLgBgEzXQCCFA1TdtLSMO1xB+3tOCPn7tjlcpZeyvwxbXXickP5FsoppzL+1VdZ6t0CJqVwqU989OvV7CIdckEM9wGDnpuKBHRZuamh2mv2ChophUuTk8QgyDEOmvZg8/8Dn9syM6kH5a/xtztl1UXHClWuitKWg9Gg8+UprarTiU9WKGqiFmpV/EOllueFgUwYIjoOplcXAAA6ulJf++XTwOzo7b6UjbRZHaey4HtIFzU9zfaILg0LoKI6GqwnshY8xhUUWn0BtxnjQSs15COtPgn6l5PwzsQJdv8tMwo6hNZArGy3VwSreVd9traToA5uKOQ+XevCNuMsQ0iIrqK0mgs+E6z+QYua/eWNNhF28TRLordFkM3k9kh7ChciIiuqpHm2I+ttMcw1INGxvf9H7JRTy47Rr5rh311IqIrRMUu5S7RhyOPBAsZhgsR0boYKpdiuBARrcgy5Rh2eh0/hgsR0RokP44+6MGwQ9NhuBARreGyYGHAGIYLEdGaGCCXY7gQEa1JeXL4pRguRERUHMOFiGhFNk5sMFvy0UmTix12RBvDhYhoVappvNjwnv0by4929cbu3K8dhYu98elHcAQ/BiKiNQwaZ78WmE1jb3OHCXTQgnYt3bJ2b9Htm8rb2ZQrinR9mcV9rF23zzsIF/HF2kbtasWJiHZn5JO/WsLUkwkUQIhNauraqYcXXedeFk9DtrE8TKAAokJi6l3Z9P+i2r72nAXrWspq4aIKaJy7ZOaQxYliIg/8ezO6YURER0khiD4DsrV/6cJaKoJQ11ABmmpijZxfyCv6RcBSsy8qvbBJlxNLFxXbSjuVvq+p+gXO/OJfKe8ggAbvxQwKobsQGTQUb6lXChdbx5Ekn2NvWoXZCo8lIjo+XTz41PqZGIJPWglosCuDtVeVbB/tLb/rlmcNbskmPLXK1nGxD/fdbd6DAaAI/uqD8itmtg8saKVwWZdlqVklkoiIjstIyyUpULwBF7HdUGJf56mxNECW3rmBuVXNwkLTR/65rcmUXiFTLFx6gxPUFtslKBHRVbGk5UrHM6qAKBXQjDxsyWXp01UhkdrMQnytvBdlX0uMkLib4z2rKBYuRETXy6A5VgAaoUHsQlw+euxYRFVIbI5mnXYTLrL8wD8R0ZXiR+Wtt+HjkuFdkeyYyqq9gzScuSQRC7221lqj8nYTLq3DbRgRURmpJ+DnjGzRMdjiqZcSoB25pu0Nh7OjcDlsYhIRldNvrVdt2bpI6gpdZ6cIzXpBtvxot+YHwQu+3jp2Fy75kSsioitMVBBiCpds/NVYw50+W6dmcFA9efKsWZr9qwC0PakmZiFj9x3CbsJF27+IiK680WAYTZZxo8/fsolMi7Mc89Mp/Yz8oAKJAmnsnJxD2E24AJ6aB9oqIqLC+q2ZN+2bNnGbPm+gDRYdnPCZZgWIY2Ol96NcuNikNoCndNc39LsRs2pYLBZrz5W3QXmlxnfYtZinAJoQEIM9Nv/8rBs24+3erHUrW0ZARMhe3B4juDi9ZSd4brx2mysXLnlPJYVLvrFzP9DhD57FYrF2VcP2p6t+o3t5Ixx9Tq7c8meM8M/eqcncmKB99XyNrCcDXJzeQvRZBdZfye0UDBf0fzCDDbFOW5oAOi8iol3r2p/xssdcRmJEaLyhTlO+eLXHVVYtjNy2YvXGS/l6pAkqIWInesKnpznQSZWFw8WoRESxmRFqCGpUmGGCGhM0XurVvctERCVJ2840qNq2p8YEs15VmKFCg3Ti4aKTwBUhNpjUFxAI6ukJmhOgOQHiCaBe6bbROvV/J1Zxw2qfOwXiRBCrCeq7EzSnEzS3J6gfmqK+ewJMJqh8ChgA3ezOewgckSc+oADwsR/9McTqAne++Qbe8czT+I7P/UPf0+UHi3y6fZVquIyWzbwpgERcxEfwjfpfwevx7Qjt5wJL/Fpv40IfgWoApJ7v5hARbU0AraAIuBW+iam8AUAQ811a2bGLCmd4cvpZPFY9i4ip72/p7zZTUVR1jXvf9h346ge+E6+96XFUdd0+xBrxxVPqK2zyy7jRbMT+eJ+BuWubU4+lQahTMEbcfv1b+PbP/SYefulFTC4uANglA7rFdeup6gf+xSbljCoIkneXFCoBZw89jme/+6N48R3vwfntuxBUozOy/MynPlE6XHwj/buZ3kXUk/4oBigaPUGN21C1TwmLfhBERJuyVsc+8E7lPiZylu2Wn38kAEzkDJVc+OOs7cvvjxObcj9WAfXJCerpCUKTB5Bdx2VMulnhU/SHdXcc2QIEXecqRP9e0F13C4Ck628pMJldQJrGL6WZrduicPHLCEjbntt7oRLw4KHH8cVBuGgWLml5a4aLvXkqy98QS8b0Lo6/yQDaftrWB7SIiBZom6AV2qIxvQskChCrChLr9tiGNLFrfL0xln4etc9tR235feuHixH1K04CXR8pNbnBMyJal6yeTFE1DSTGuVWC2PMVFkr2RF9Fhc9VNh8uz373D+GlLFxiassH4TK/db5AG8rmgeJJu4ou6bU7S3SuFt3OYrFYBattjxa1OTF7zNhzM2kIsHrvRPuBId6o5x/I24qKEKM1+r7cucesWFBfGdhuOhtIIIhVQKwqxGyodNXYSLku8frb111aDCkB+ylhr9J+Jeq7CtN46N6juj8YO6DfvkzU9vn2Oj7N9AraN8L3Wc5X9kYNN5jFYrEKVdvWLGuLsvaoV9Bh02YBAfvwHaKdCd8NETMKu2mu/H5JbWSMm1XqZSBaj0MjRBuEpkZVzxCaGhIbqN+O9gD+SGkK14x2E9z034/UeYhWYwEjatPQ5OHS5U16s4iIKJePttrXqKvLDdYnW6fdrGPX35k/lN/JwgUpU4d9IiIiugpK58gWRvdzHdH6ERHRFTQaLuy3EBHRNkbDhYiIaBttuKQRYey3EBHRqroRcYIoFaKfaJ+dRPkn0YQGd751hrc/8wze9xv/aLgMIiK6kRQaAs7uPIpnP/h9ePGd78b57buATuZmHgAUf/2T/+18uNx6/Rxv+frX8dQXPjNYOBERXW9pz9VgWJcoNAjOT+/i6+//XfjmW5/E7OQWgKoNlyjdmUF/YxguURpMZjVuv/Y6Hvrmc9mSiYjoepPsSEk6UTMdKlEgNGiqU7z2+JM4v3UXsapgJ9f7M8QKAH7ur/XmFvuTUF+gaAPRi/SKRER0Iwx7Lvkx+AiVCooTn8DY7uvCxU7FFwB//ZP/fT9ceudb+nQFPOeFiOiGGMuUlvdkhtPd+JeKbuqXkXBJcWJPZrgQEdEqLFgsMX72Z/97nudCRETbS5Mcpz4Nw4WIiIprd4sRERGV8v8D0pujzYr3fqAAAAAASUVORK5CYII=;" parent="1" vertex="1">
                    <mxGeometry x="220" y="290" width="407" height="712" as="geometry"/>
                </mxCell>
                <mxCell id="11" value="" style="rounded=0;whiteSpace=wrap;html=1;" parent="1" vertex="1">
                    <mxGeometry y="160" width="850" height="60" as="geometry"/>
                </mxCell>
                <mxCell id="16" value="" style="rounded=0;whiteSpace=wrap;html=1;fillColor=#dae8fc;strokeColor=#6c8ebf;" parent="1" vertex="1">
                    <mxGeometry y="160" width="70" height="60" as="geometry"/>
                </mxCell>
                <mxCell id="17" value="" style="rounded=0;whiteSpace=wrap;html=1;fillColor=#d5e8d4;strokeColor=#82b366;" parent="1" vertex="1">
                    <mxGeometry x="70" y="160" width="200" height="60" as="geometry"/>
                </mxCell>
            </root>
        </mxGraphModel>
    </diagram>
    <diagram id="OJ0Lm4sFHBDfEvsf1FIQ" name="Page-2">
        <mxGraphModel dx="777" dy="767" grid="1" gridSize="10" guides="1" tooltips="1" connect="1" arrows="1" fold="1" page="1" pageScale="1" pageWidth="850" pageHeight="1100" math="0" shadow="0">
            <root>
                <mxCell id="0"/>
                <mxCell id="1" parent="0"/>
            </root>
        </mxGraphModel>
    </diagram>
</mxfile>